<svg xmlns="http://www.w3.org/2000/svg" xmlns:xlink="http://www.w3.org/1999/xlink" width="1599" zoomAndPan="magnify" viewBox="0 0 1199.25 675.000002" height="900" preserveAspectRatio="xMidYMid meet" version="1.0"><defs><g/><clipPath id="94dd6d599a"><path d="M 440 374.773438 L 1140.753906 374.773438 L 1140.753906 383.757812 L 440 383.757812 Z M 440 374.773438 " clip-rule="nonzero"/></clipPath></defs><g fill="#08120d" fill-opacity="1"><g transform="translate(423.601006, 309.725691)"><g><path d="M 4.320312 -91.613281 L 62.875 -91.613281 L 62.875 -75.410156 C 62.875 -69.140625 62.226562 -62.875 60.285156 -56.828125 C 79.511719 -72.167969 100.472656 -104.363281 106.089844 -129.640625 L 43.214844 -129.640625 L 43.214844 -130.9375 C 43.214844 -141.308594 41.269531 -153.191406 36.949219 -159.675781 L -0.433594 -151.464844 C 2.160156 -146.925781 4.320312 -139.148438 4.320312 -125.96875 Z M 106.089844 -110.84375 C 95.285156 -77.351562 62.875 -41.269531 27.871094 -32.410156 L 42.996094 1.945312 C 79.945312 -7.996094 106.089844 -29.167969 106.089844 -75.191406 Z M 106.089844 -110.84375 "/></g></g></g><g fill="#08120d" fill-opacity="1"><g transform="translate(537.037414, 309.725691)"><g><path d="M 27.65625 -37.8125 C 37.378906 -74.113281 54.015625 -97.878906 90.75 -90.316406 L 96.582031 -129.640625 L 43.863281 -129.640625 C 26.578125 -129.640625 20.527344 -131.152344 11.234375 -134.828125 L 1.082031 -98.742188 C 11.453125 -93.125 19.015625 -91.613281 27.226562 -91.613281 L 27.65625 -91.613281 Z M 70.871094 -84.265625 C 50.34375 -86.859375 19.015625 -27.871094 37.164062 3.242188 L 80.160156 -5.832031 C 74.761719 -14.691406 70.871094 -23.984375 70.871094 -46.671875 Z M 70.871094 -84.265625 "/></g></g></g><g fill="#08120d" fill-opacity="1"><g transform="translate(635.7811, 309.725691)"><g><path d="M 7.5625 -89.886719 C 57.691406 -100.039062 94.636719 -93.558594 106.953125 -55.3125 L 106.953125 -75.410156 C 106.953125 -124.238281 89.667969 -141.527344 1.945312 -126.832031 Z M 106.523438 0 C 108.683594 -54.449219 93.125 -79.511719 60.714844 -86.210938 C 63.09375 -80.808594 63.742188 -73.894531 63.742188 -66.332031 L 63.742188 0 Z M 106.523438 0 "/></g></g></g><g fill="#08120d" fill-opacity="1"><g transform="translate(750.297846, 309.725691)"><g><path d="M 38.675781 -131.585938 C 60.066406 -126.183594 65.253906 -90.964844 65.253906 -60.929688 L 65.253906 -44.511719 L 108.46875 -44.511719 L 108.46875 -76.054688 C 108.46875 -116.027344 96.367188 -135.90625 38.675781 -131.585938 Z M 56.179688 -90.964844 C 53.585938 -106.304688 50.34375 -135.691406 3.457031 -127.695312 L 9.722656 -89.667969 C 32.195312 -93.34375 46.023438 -94.207031 56.179688 -90.964844 Z M 4.539062 0 L 118.40625 0 L 123.160156 -38.027344 L 7.996094 -38.027344 Z M 4.539062 0 "/></g></g></g><g fill="#08120d" fill-opacity="1"><g transform="translate(874.969875, 309.725691)"><g/></g><g transform="translate(928.987237, 309.725691)"><g><path d="M 37.597656 -91.613281 L 119.917969 -91.613281 L 125.535156 -129.640625 L 43.214844 -129.640625 C 29.386719 -129.640625 20.308594 -130.9375 11.234375 -134.828125 L 1.296875 -98.09375 C 10.15625 -93.34375 21.824219 -91.613281 37.597656 -91.613281 Z M 103.929688 -85.132812 L 60.714844 -85.132812 L 60.714844 0 L 103.929688 0 Z M 103.929688 -85.132812 "/></g></g></g><g fill="#08120d" fill-opacity="1"><g transform="translate(1056.684257, 309.725691)"><g><path d="M 1.296875 -98.527344 C 24.632812 -86.210938 57.042969 -87.507812 75.839844 -129.640625 L 43.429688 -129.640625 C 29.816406 -129.640625 19.015625 -130.9375 11.453125 -134.828125 Z M 75.839844 -116.027344 C 63.742188 -92.910156 42.132812 -85.347656 32.625 -85.996094 L 32.625 -44.726562 L 75.839844 -50.128906 Z M 75.839844 -116.027344 "/></g></g></g><g clip-path="url(#94dd6d599a)"><path fill="#4e544f" d="M 1259.195312 383.328125 L 440.972656 383.328125 L 440.972656 374.746094 L 1259.195312 374.746094 L 1259.195312 383.328125 " fill-opacity="1" fill-rule="nonzero"/></g><g fill="#08120d" fill-opacity="1"><g transform="translate(418.822629, 510.466532)"><g/></g></g><g fill="#08120d" fill-opacity="1"><g transform="translate(459.215369, 510.466532)"><g><path d="M 29.59375 -95.65625 C 25.414062 -95.53125 22.476562 -93.441406 20.78125 -89.390625 C 14.894531 -74.617188 11.101562 -54.953125 9.40625 -30.390625 C 7.84375 -27.117188 8.039062 -23.914062 10 -20.78125 C 11.957031 -17.769531 14.765625 -16.265625 18.421875 -16.265625 C 28.617188 -16.265625 36.921875 -16.332031 43.328125 -16.46875 C 49.859375 -16.59375 57.046875 -16.65625 64.890625 -16.65625 C 65.929688 -16.53125 66.972656 -16.597656 68.015625 -16.859375 C 71.285156 -17.117188 73.769531 -18.625 75.46875 -21.375 C 77.300781 -24.113281 77.628906 -26.988281 76.453125 -30 C 78.015625 -52.082031 81.347656 -69.460938 86.453125 -82.140625 C 87.890625 -85.398438 87.5625 -88.535156 85.46875 -91.546875 C 83.375 -94.421875 80.5 -95.789062 76.84375 -95.65625 C 76.445312 -95.65625 76.054688 -95.59375 75.671875 -95.46875 L 75.46875 -95.46875 C 73.90625 -95.59375 72.46875 -95.265625 71.15625 -94.484375 C 59.269531 -88.992188 48.75 -78.410156 39.59375 -62.734375 C 38.03125 -60.378906 37.570312 -57.828125 38.21875 -55.078125 C 38.875 -52.335938 40.445312 -50.316406 42.9375 -49.015625 C 45.28125 -47.566406 47.828125 -47.238281 50.578125 -48.03125 C 53.316406 -48.8125 55.34375 -50.441406 56.65625 -52.921875 C 57.695312 -54.890625 58.742188 -56.59375 59.796875 -58.03125 C 58.617188 -51.488281 57.765625 -44.300781 57.234375 -36.46875 C 53.054688 -36.46875 48.421875 -36.398438 43.328125 -36.265625 C 38.222656 -36.003906 33.644531 -35.875 29.59375 -35.875 C 31.164062 -54.820312 34.367188 -70.242188 39.203125 -82.140625 C 40.515625 -85.398438 40.1875 -88.535156 38.21875 -91.546875 C 36.132812 -94.421875 33.257812 -95.789062 29.59375 -95.65625 Z M 29.59375 -95.65625 "/></g></g></g><g fill="#08120d" fill-opacity="1"><g transform="translate(551.349062, 510.466532)"><g><path d="M 18.421875 -95.265625 C 14.628906 -95.265625 11.753906 -93.632812 9.796875 -90.375 C 7.972656 -86.976562 7.972656 -83.644531 9.796875 -80.375 C 9.796875 -80.113281 9.796875 -79.851562 9.796875 -79.59375 L 16.46875 -25.09375 C 16.726562 -22.613281 17.773438 -20.519531 19.609375 -18.8125 C 21.691406 -17.113281 23.910156 -16.265625 26.265625 -16.265625 L 51.171875 -16.265625 C 53.253906 -16.265625 55.210938 -16.921875 57.046875 -18.234375 C 58.878906 -19.535156 60.117188 -21.164062 60.765625 -23.125 L 78.609375 -80.96875 C 78.867188 -81.613281 79 -82.332031 79 -83.125 C 79.914062 -86.257812 79.394531 -89.195312 77.4375 -91.9375 C 75.34375 -94.550781 72.660156 -95.789062 69.390625 -95.65625 Z M 43.90625 -35.875 L 35.09375 -35.875 L 30.390625 -75.46875 L 56.453125 -75.859375 Z M 43.90625 -35.875 "/></g></g></g><g fill="#08120d" fill-opacity="1"><g transform="translate(635.445563, 510.466532)"><g><path d="M 73.703125 -95.65625 C 71.484375 -95.65625 69.523438 -94.9375 67.828125 -93.5 C 65.992188 -91.9375 64.816406 -90.046875 64.296875 -87.828125 C 62.734375 -79.585938 57.769531 -70.960938 49.40625 -61.953125 C 42.738281 -70.441406 37.179688 -79.71875 32.734375 -89.78125 C 31.171875 -93.832031 28.164062 -95.789062 23.71875 -95.65625 C 20.320312 -95.65625 17.773438 -94.15625 16.078125 -91.15625 C 14.117188 -88.28125 13.859375 -85.273438 15.296875 -82.140625 C 17.773438 -76.515625 20.648438 -70.957031 23.921875 -65.46875 C 12.804688 -50.96875 7.1875 -37.769531 7.0625 -25.875 C 7.0625 -23.394531 7.972656 -21.175781 9.796875 -19.21875 C 11.890625 -17.25 14.175781 -16.265625 16.65625 -16.265625 C 19.144531 -16.265625 21.367188 -17.179688 23.328125 -19.015625 C 25.285156 -20.972656 26.265625 -23.195312 26.265625 -25.6875 C 26.265625 -32.34375 29.398438 -40.117188 35.671875 -49.015625 C 44.171875 -38.421875 54.429688 -28.617188 66.453125 -19.609375 C 68.546875 -18.171875 70.898438 -17.582031 73.515625 -17.84375 C 76.128906 -18.226562 78.21875 -19.46875 79.78125 -21.5625 C 81.351562 -23.65625 81.941406 -26.070312 81.546875 -28.8125 C 81.160156 -31.300781 79.921875 -33.328125 77.828125 -34.890625 C 72.203125 -39.203125 67.039062 -43.515625 62.34375 -47.828125 C 73.84375 -60.503906 80.769531 -72.59375 83.125 -84.09375 C 83.769531 -87.101562 83.113281 -89.785156 81.15625 -92.140625 C 79.195312 -94.484375 76.710938 -95.65625 73.703125 -95.65625 Z M 73.703125 -95.65625 "/></g></g></g><g fill="#08120d" fill-opacity="1"><g transform="translate(723.070583, 510.466532)"><g><path d="M 19.796875 -95.078125 C 17.316406 -95.078125 15.03125 -94.097656 12.9375 -92.140625 C 10.84375 -90.046875 9.796875 -87.757812 9.796875 -85.28125 C 9.929688 -82.53125 10.976562 -80.175781 12.9375 -78.21875 C 15.03125 -76.257812 17.445312 -75.34375 20.1875 -75.46875 L 57.234375 -75.671875 C 53.835938 -63.515625 51.421875 -47.242188 49.984375 -26.859375 C 49.859375 -24.367188 50.707031 -22.015625 52.53125 -19.796875 C 54.5 -17.703125 56.722656 -16.59375 59.203125 -16.46875 C 61.816406 -16.207031 64.234375 -17.054688 66.453125 -19.015625 C 68.546875 -20.710938 69.65625 -22.9375 69.78125 -25.6875 C 71.476562 -50.125 74.941406 -68.941406 80.171875 -82.140625 C 81.484375 -85.398438 81.160156 -88.46875 79.203125 -91.34375 C 77.234375 -94.21875 74.488281 -95.65625 70.96875 -95.65625 Z M 25.28125 -56.84375 C 22.800781 -56.84375 20.582031 -55.929688 18.625 -54.109375 C 16.789062 -52.273438 15.742188 -50.179688 15.484375 -47.828125 L 7.453125 28.234375 C 7.191406 30.847656 7.972656 33.265625 9.796875 35.484375 C 11.628906 37.578125 13.785156 38.816406 16.265625 39.203125 C 18.878906 39.460938 21.300781 38.679688 23.53125 36.859375 C 25.75 35.023438 26.988281 32.867188 27.25 30.390625 L 35.09375 -45.671875 C 35.476562 -48.679688 34.691406 -51.296875 32.734375 -53.515625 C 30.773438 -55.734375 28.289062 -56.84375 25.28125 -56.84375 Z M 25.28125 -56.84375 "/></g></g></g><g fill="#08120d" fill-opacity="1"><g transform="translate(808.735313, 510.466532)"><g><path d="M 47.4375 -95.65625 C 46.65625 -95.65625 45.875 -95.59375 45.09375 -95.46875 L 17.0625 -95.078125 C 14.445312 -95.078125 12.09375 -94.097656 10 -92.140625 C 8.039062 -90.046875 7.0625 -87.691406 7.0625 -85.078125 C 7.1875 -82.460938 8.226562 -80.175781 10.1875 -78.21875 C 12.28125 -76.257812 14.570312 -75.28125 17.0625 -75.28125 L 33.71875 -75.46875 C 30.445312 -63.84375 28.160156 -47.640625 26.859375 -26.859375 C 26.597656 -24.242188 27.445312 -21.890625 29.40625 -19.796875 C 31.238281 -17.578125 33.457031 -16.398438 36.0625 -16.265625 C 38.550781 -16.003906 40.90625 -16.851562 43.125 -18.8125 C 45.34375 -20.644531 46.453125 -22.867188 46.453125 -25.484375 C 48.023438 -47.179688 50.769531 -63.910156 54.6875 -75.671875 L 68.21875 -75.859375 C 70.832031 -75.859375 73.1875 -76.835938 75.28125 -78.796875 C 77.238281 -80.890625 78.21875 -83.242188 78.21875 -85.859375 C 78.21875 -88.472656 77.171875 -90.757812 75.078125 -92.71875 C 73.117188 -94.675781 70.765625 -95.65625 68.015625 -95.65625 L 49.984375 -95.46875 C 49.203125 -95.726562 48.351562 -95.789062 47.4375 -95.65625 Z M 47.4375 -95.65625 "/></g></g></g><g fill="#08120d" fill-opacity="1"><g transform="translate(890.479462, 510.466532)"><g><path d="M 27.84375 -95.65625 C 23.53125 -95.53125 20.585938 -93.441406 19.015625 -89.390625 C 13.003906 -74.359375 9.082031 -53.515625 7.25 -26.859375 C 7.125 -24.242188 7.972656 -21.890625 9.796875 -19.796875 C 11.628906 -17.578125 13.914062 -16.398438 16.65625 -16.265625 C 19.144531 -16.003906 21.5 -16.851562 23.71875 -18.8125 C 25.8125 -20.644531 26.921875 -22.867188 27.046875 -25.484375 C 28.742188 -50.054688 32.207031 -68.875 37.4375 -81.9375 C 38.875 -85.207031 38.550781 -88.410156 36.46875 -91.546875 C 34.375 -94.421875 31.5 -95.789062 27.84375 -95.65625 Z M 27.84375 -95.65625 "/></g></g></g><g fill="#08120d" fill-opacity="1"><g transform="translate(933.60585, 510.466532)"><g><path d="M 27.84375 -95.46875 C 25.613281 -95.332031 23.585938 -94.484375 21.765625 -92.921875 C 19.796875 -91.347656 18.617188 -89.453125 18.234375 -87.234375 L 18.234375 -87.03125 C 18.234375 -87.03125 18.164062 -86.96875 18.03125 -86.84375 L 12.34375 -59 C 11.695312 -56.125 12.222656 -53.515625 13.921875 -51.171875 C 15.742188 -48.816406 18.09375 -47.507812 20.96875 -47.25 L 41.953125 -45.09375 C 44.566406 -44.820312 46.984375 -45.601562 49.203125 -47.4375 C 51.421875 -49.269531 52.660156 -51.492188 52.921875 -54.109375 C 53.191406 -56.722656 52.410156 -59.070312 50.578125 -61.15625 C 48.742188 -63.382812 46.519531 -64.628906 43.90625 -64.890625 L 34.109375 -65.671875 L 36.0625 -75.671875 L 65.46875 -76.0625 C 62.332031 -65.082031 60.113281 -51.882812 58.8125 -36.46875 C 56.0625 -36.46875 50.242188 -36.398438 41.359375 -36.265625 C 34.691406 -36.003906 26.59375 -35.875 17.0625 -35.875 C 14.445312 -36 12.15625 -35.082031 10.1875 -33.125 C 8.101562 -31.039062 7.0625 -28.691406 7.0625 -26.078125 C 7.0625 -23.460938 8.101562 -21.175781 10.1875 -19.21875 C 12.15625 -17.25 14.445312 -16.265625 17.0625 -16.265625 C 27.25 -16.265625 36.195312 -16.332031 43.90625 -16.46875 C 52.269531 -16.59375 59.722656 -16.65625 66.265625 -16.65625 C 67.429688 -16.53125 68.671875 -16.53125 69.984375 -16.65625 L 70.96875 -16.65625 C 75.144531 -16.65625 78.148438 -18.617188 79.984375 -22.546875 C 81.804688 -26.460938 81.28125 -29.988281 78.40625 -33.125 C 79.976562 -53.507812 83.25 -69.910156 88.21875 -82.328125 C 89.519531 -85.597656 89.125 -88.671875 87.03125 -91.546875 C 85.070312 -94.421875 82.328125 -95.859375 78.796875 -95.859375 Z M 27.84375 -95.46875 "/></g></g></g><g fill="#08120d" fill-opacity="1"><g transform="translate(1027.307756, 510.466532)"><g><path d="M 22.15625 -95.265625 C 19.539062 -95.265625 17.1875 -94.222656 15.09375 -92.140625 C 13.132812 -90.171875 12.15625 -87.882812 12.15625 -85.28125 C 12.28125 -82.53125 13.328125 -80.175781 15.296875 -78.21875 C 17.378906 -76.257812 19.726562 -75.34375 22.34375 -75.46875 L 59.59375 -75.671875 C 56.195312 -63.515625 53.84375 -47.242188 52.53125 -26.859375 C 52.269531 -24.242188 53.054688 -21.890625 54.890625 -19.796875 C 56.722656 -17.578125 58.941406 -16.398438 61.546875 -16.265625 C 64.160156 -16.003906 66.515625 -16.851562 68.609375 -18.8125 C 70.828125 -20.644531 72.003906 -22.867188 72.140625 -25.484375 C 73.835938 -50.054688 77.300781 -68.941406 82.53125 -82.140625 C 83.832031 -85.398438 83.503906 -88.535156 81.546875 -91.546875 C 79.585938 -94.285156 76.78125 -95.65625 73.125 -95.65625 Z M 19.796875 -61.15625 C 17.316406 -61.289062 15.097656 -60.507812 13.140625 -58.8125 C 11.171875 -56.976562 10.054688 -54.882812 9.796875 -52.53125 C 8.878906 -46.257812 8.03125 -37.703125 7.25 -26.859375 C 7.125 -24.242188 7.972656 -21.890625 9.796875 -19.796875 C 11.628906 -17.578125 13.914062 -16.398438 16.65625 -16.265625 C 19.144531 -16.003906 21.5 -16.851562 23.71875 -18.8125 C 25.8125 -20.644531 26.921875 -22.867188 27.046875 -25.484375 C 27.835938 -35.941406 28.625 -44.046875 29.40625 -49.796875 C 29.800781 -52.796875 29.082031 -55.410156 27.25 -57.640625 C 25.289062 -59.984375 22.804688 -61.15625 19.796875 -61.15625 Z M 19.796875 -61.15625 "/></g></g></g><path fill="#000000" d="M 203.414062 164.136719 C 195.796875 166.929688 191.820312 169.890625 183.273438 179.453125 C 180.5625 182.5 176.5 186.816406 174.300781 189.1875 C 172.101562 191.472656 167.53125 196.632812 164.148438 200.609375 C 160.761719 204.589844 156.191406 209.664062 153.992188 212.035156 C 151.792969 214.320312 147.304688 219.3125 144.175781 223.035156 C 140.960938 226.761719 137.40625 230.90625 136.21875 232.261719 C 135.035156 233.613281 133.511719 235.308594 132.75 236.070312 C 132.074219 236.832031 127.925781 241.570312 123.527344 246.730469 C 111.171875 261.117188 99.578125 273.8125 98.5625 273.8125 C 97.207031 273.8125 97.378906 202.726562 98.816406 201.289062 C 99.664062 200.441406 105.839844 200.101562 124.203125 199.765625 C 137.574219 199.511719 149.253906 199.003906 150.183594 198.582031 C 159.152344 194.601562 160.847656 181.910156 153.398438 175.140625 C 148.914062 171.078125 148.152344 170.992188 116.417969 170.992188 C 91.707031 170.992188 85.953125 171.246094 82.738281 172.347656 C 78.253906 173.871094 74.78125 176.832031 71.820312 181.570312 L 69.789062 184.957031 L 69.789062 232.089844 C 69.789062 278.550781 69.789062 279.226562 71.566406 281.597656 C 74.191406 285.152344 80.199219 289.46875 82.570312 289.46875 C 85.445312 289.46875 85.105469 291.074219 81.300781 294.96875 C 76.8125 299.621094 70.890625 309.269531 69.027344 314.855469 C 67.25 320.355469 67.421875 335.332031 69.367188 340.242188 C 72.246094 347.773438 75.628906 353.1875 81.976562 360.550781 C 88.152344 367.574219 92.640625 372.820312 98.222656 379.085938 C 101.695312 382.976562 107.277344 389.492188 110.75 393.46875 C 114.132812 397.449219 118.109375 402.101562 119.632812 403.710938 C 121.074219 405.316406 124.375 409.125 126.910156 412.171875 C 129.449219 415.21875 132.921875 419.195312 134.613281 421.058594 C 136.390625 422.921875 139.691406 426.726562 142.058594 429.519531 L 146.375 434.597656 L 146.375 455.078125 C 146.375 475.300781 146.375 475.554688 144.515625 476.824219 C 142.90625 478.011719 139.265625 478.179688 121.410156 478.179688 C 109.816406 478.179688 99.832031 477.839844 99.410156 477.503906 C 96.699219 475.640625 96.445312 472.003906 96.445312 438.574219 C 96.445312 418.351562 96.109375 403.710938 95.601562 401.847656 C 95.09375 400.15625 93.402344 397.617188 91.707031 396.179688 C 89 393.808594 88.238281 393.554688 82.90625 393.554688 C 77.320312 393.554688 76.898438 393.722656 73.683594 396.6875 C 70.890625 399.394531 70.296875 400.578125 69.789062 404.554688 C 69.535156 407.09375 69.367188 427.828125 69.535156 450.675781 L 69.789062 492.144531 L 72.246094 496.203125 C 75.207031 501.199219 79.4375 504.5 84.515625 505.851562 C 90.269531 507.375 230.578125 507.289062 236.332031 505.765625 C 241.238281 504.5 245.472656 501.367188 248.601562 496.628906 L 250.886719 493.074219 L 251.140625 438.066406 L 251.394531 382.976562 L 249.277344 380.183594 C 248.179688 378.578125 241.492188 371.46875 234.46875 364.273438 C 227.53125 357.167969 221.351562 350.480469 220.84375 349.550781 C 219.914062 347.773438 220.589844 345.742188 222.875 343.371094 C 223.554688 342.695312 225.246094 340.074219 226.601562 337.617188 C 229.898438 331.441406 235.0625 327.546875 239.886719 327.546875 C 243.523438 327.546875 247.585938 330.003906 256.386719 337.449219 C 257.570312 338.378906 260.449219 340.835938 262.734375 342.78125 C 265.105469 344.726562 267.894531 347.179688 269.082031 348.195312 C 273.988281 352.511719 284.992188 360.296875 287.953125 361.652344 C 292.183594 363.597656 306.484375 363.683594 310.039062 361.820312 C 311.308594 361.144531 312.832031 360.550781 313.253906 360.550781 C 314.695312 360.550781 323.578125 353.273438 328.320312 348.195312 C 330.773438 345.402344 338.21875 337.535156 344.820312 330.59375 C 364.113281 310.117188 368.007812 303.429688 366.992188 292.429688 C 366.738281 289.550781 366.0625 286.082031 365.46875 284.726562 C 361.746094 275.417969 359.542969 272.457031 350.742188 265.265625 C 344.820312 260.355469 341.265625 257.394531 339.402344 255.617188 C 338.644531 254.855469 336.1875 252.824219 333.820312 250.960938 C 331.535156 249.101562 329.164062 247.238281 328.65625 246.730469 C 328.148438 246.308594 325.101562 243.769531 321.972656 241.230469 C 313.085938 233.953125 294.214844 218.214844 292.777344 216.773438 C 292.097656 216.097656 282.621094 208.144531 271.621094 199.085938 C 260.703125 189.949219 251.140625 181.910156 250.378906 181.230469 C 246.910156 177.847656 235.230469 168.707031 232.101562 167.015625 C 223.976562 162.445312 211.621094 161.261719 203.414062 164.136719 Z M 225.332031 196.296875 C 227.867188 198.15625 231.167969 201.203125 232.609375 203.066406 C 234.976562 205.941406 235.402344 207.296875 235.402344 211.105469 C 235.484375 215.929688 235.402344 216.011719 228.628906 224.222656 C 218.050781 236.914062 209.757812 246.140625 207.898438 247.410156 C 205.019531 249.269531 196.980469 249.355469 195.457031 247.578125 C 194.867188 246.902344 194.019531 246.308594 193.597656 246.308594 C 192.328125 246.308594 186.148438 241.316406 182.59375 237.507812 C 180.054688 234.800781 179.378906 233.359375 179.378906 230.820312 C 179.378906 227.4375 181.496094 222.527344 184.203125 219.652344 C 185.050781 218.722656 189.703125 213.558594 194.527344 208.226562 C 208.828125 192.316406 209.421875 191.894531 216.78125 192.570312 C 219.828125 192.824219 221.945312 193.757812 225.332031 196.296875 Z M 270.519531 235.054688 C 278.21875 238.609375 282.789062 243.855469 283.890625 250.285156 C 284.820312 256.039062 283.722656 259.933594 280.25 263.65625 C 278.472656 265.519531 275.003906 269.496094 272.464844 272.542969 C 260.789062 286.335938 259.519531 287.519531 255.457031 288.621094 C 252.496094 289.46875 251.480469 289.296875 247.585938 287.519531 C 239.96875 284.050781 231 273.980469 231 268.988281 C 231 265.6875 233.792969 260.101562 237.601562 255.957031 C 250.039062 242.246094 256.21875 235.816406 258.078125 234.800781 C 261.042969 233.191406 266.710938 233.359375 270.519531 235.054688 Z M 166.769531 260.777344 C 172.1875 263.316406 173.203125 263.996094 180.648438 269.410156 C 186.824219 273.894531 197.320312 281.34375 209.25 289.722656 C 216.445312 294.796875 217.882812 297.167969 217.796875 304.359375 C 217.714844 309.777344 217.460938 310.792969 214.667969 314.9375 C 210.859375 320.695312 207.472656 322.46875 200.195312 322.46875 C 194.359375 322.46875 195.289062 323.0625 172.015625 305.96875 C 169.140625 303.851562 166.261719 302.160156 165.667969 302.246094 C 164.316406 302.328125 152.300781 316.292969 152.300781 317.648438 C 152.382812 318.746094 156.023438 322.894531 167.871094 335.164062 C 172.1875 339.566406 180.140625 348.113281 185.726562 354.203125 C 191.226562 360.214844 197.742188 367.238281 200.027344 369.777344 C 208.996094 379.253906 210.4375 380.777344 217.207031 388.222656 L 224.144531 395.925781 L 224.570312 434.257812 C 224.992188 475.554688 224.824219 476.742188 220.589844 477.757812 C 219.574219 478.011719 208.828125 478.09375 196.726562 478.011719 L 174.726562 477.757812 L 174.472656 451.183594 L 174.300781 424.613281 L 168.378906 417.671875 C 165.164062 413.863281 162.03125 410.140625 161.355469 409.464844 C 160.675781 408.789062 158.054688 405.742188 155.597656 402.777344 C 153.144531 399.816406 150.269531 396.433594 149.167969 395.332031 C 148.066406 394.148438 144.429688 390 141.042969 386.023438 C 137.660156 382.046875 134.613281 378.324219 134.105469 377.816406 C 128.097656 371.382812 98.730469 336.6875 97.039062 334.148438 C 96.023438 332.539062 95.601562 330.085938 95.601562 326.023438 C 95.601562 319.679688 96.785156 317.308594 104.0625 309.355469 C 105.753906 307.492188 109.394531 303.515625 112.101562 300.46875 C 114.894531 297.421875 118.871094 293.019531 121.074219 290.734375 C 123.1875 288.367188 128.351562 282.695312 132.496094 278.042969 C 142.90625 266.28125 146.714844 262.726562 150.859375 260.777344 C 155.683594 258.578125 162.117188 258.578125 166.769531 260.777344 Z M 319.347656 276.773438 C 324.257812 278.804688 330.601562 284.644531 332.210938 288.535156 C 333.820312 292.429688 333.902344 297.082031 332.464844 299.707031 C 331.535156 301.3125 324.171875 310.625 322.394531 312.316406 C 321.210938 313.5 311.476562 324.925781 309.785156 327.125 C 307.753906 329.75 302.253906 332.457031 298.867188 332.539062 C 293.707031 332.710938 283.46875 325.261719 280.082031 318.832031 C 276.191406 311.636719 278.21875 306.5625 289.730469 294.542969 C 292.605469 291.496094 297.175781 286.421875 299.96875 283.289062 C 307.078125 274.996094 311.730469 273.472656 319.347656 276.773438 Z M 319.347656 276.773438 " fill-opacity="1" fill-rule="nonzero"/><path fill="#000000" d="M 285.160156 172.09375 C 278.136719 175.394531 275.683594 179.117188 275.683594 186.226562 C 275.683594 190.371094 276.105469 191.726562 278.050781 194.265625 C 282.113281 199.59375 283.042969 199.765625 314.101562 199.765625 L 341.941406 199.765625 L 343.972656 201.964844 C 346.003906 204.082031 346.003906 204.164062 346.257812 228.792969 C 346.511719 251.894531 346.597656 253.671875 348.207031 255.703125 C 354.890625 264.503906 368.769531 263.234375 373.167969 253.417969 C 374.945312 249.691406 374.945312 248.59375 374.609375 218.976562 C 374.269531 184.703125 374.269531 184.785156 368.261719 177.761719 C 362.421875 170.992188 362.253906 170.992188 322.054688 171.078125 C 297.261719 171.078125 286.683594 171.414062 285.160156 172.09375 Z M 285.160156 172.09375 " fill-opacity="1" fill-rule="nonzero"/><path fill="#000000" d="M 352.773438 336.855469 C 348.628906 339.058594 344.734375 343.289062 342.449219 347.941406 C 341.011719 351.074219 330.941406 362.75 320.617188 373.160156 C 319.941406 373.921875 317.234375 376.96875 314.695312 380.015625 C 312.15625 382.976562 309.785156 385.855469 309.277344 386.445312 C 308.855469 386.953125 305.976562 390.171875 302.929688 393.554688 C 299.882812 397.023438 292.859375 404.980469 287.277344 411.242188 C 281.605469 417.589844 276.359375 423.679688 275.597656 424.867188 C 274.328125 426.726562 274.160156 430.113281 274.160156 458.039062 C 274.160156 480.210938 274.496094 490.28125 275.257812 493.160156 C 276.699219 498.660156 282.453125 504.5 287.953125 505.9375 C 293.621094 507.375 353.621094 507.375 358.359375 505.851562 C 366.230469 503.398438 370.628906 499.167969 373.339844 491.550781 C 374.777344 487.402344 374.863281 484.273438 374.691406 445.597656 C 374.4375 410.566406 374.269531 403.792969 373.167969 402.019531 C 369.023438 395.078125 366.652344 393.554688 360.050781 393.554688 C 354.46875 393.554688 351.757812 394.824219 348.460938 399.054688 L 346.511719 401.511719 L 346.089844 437.984375 C 345.835938 457.953125 345.328125 474.964844 344.988281 475.808594 C 343.890625 477.925781 341.859375 478.179688 323.578125 478.179688 C 310.292969 478.179688 306.316406 477.925781 304.960938 476.996094 C 303.4375 475.894531 303.355469 474.457031 303.101562 458.125 C 302.929688 448.476562 303.015625 439.335938 303.269531 437.984375 C 303.523438 436.542969 304.792969 434.34375 306.0625 432.90625 C 307.332031 431.550781 309.871094 428.757812 311.730469 426.644531 C 315.117188 422.582031 329.671875 406.757812 333.394531 402.949219 C 334.582031 401.765625 337.796875 398.292969 340.589844 395.246094 C 343.296875 392.203125 349.726562 385.175781 354.890625 379.675781 C 360.050781 374.175781 364.707031 369.183594 365.128906 368.675781 C 371.308594 362.074219 374.863281 355.644531 374.863281 351.242188 C 374.863281 339.820312 362.507812 331.695312 352.773438 336.855469 Z M 352.773438 336.855469 " fill-opacity="1" fill-rule="nonzero"/></svg>